<svg style="position: absolute; width: 0; height: 0;" width="0" height="0" version="1.1" xmlns="http://www.w3.org/2000/svg" xmlns:xlink="http://www.w3.org/1999/xlink">
<defs>
<symbol id="icon-search" viewBox="0 0 32 32">
<title>search</title>
<path class="path1" d="M20.839 8.39c-1.578-1.578-3.676-2.447-5.907-2.447s-4.33 0.869-5.907 2.447c-3.258 3.258-3.258 8.558 0 11.815 1.578 1.578 3.676 2.447 5.907 2.447s4.33-0.869 5.907-2.447c3.258-3.258 3.258-8.558 0-11.815zM20.101 19.467c-1.381 1.381-3.217 2.142-5.17 2.142s-3.789-0.761-5.17-2.142c-2.851-2.85-2.851-7.489 0-10.34 1.381-1.381 3.217-2.141 5.17-2.141s3.789 0.761 5.17 2.141c2.851 2.851 2.851 7.49 0 10.34zM25.738 24.366l-2.609-2.609c-0.204-0.204-0.534-0.204-0.738 0s-0.204 0.534 0 0.738l2.609 2.609c0.102 0.102 0.236 0.153 0.369 0.153s0.267-0.051 0.369-0.153c0.204-0.204 0.204-0.534 0-0.738z"></path>
</symbol>
<symbol id="icon-microphone" viewBox="0 0 32 32">
<title>microphone</title>
<path class="path1" d="M25.439 15.892c0 0.028-0.013 0.051-0.016 0.078-0.155 4.698-3.772 8.52-8.387 8.979v5.648h3.501c0.387 0 0.7 0.314 0.7 0.7s-0.314 0.7-0.7 0.7h-8.403c-0.387 0-0.7-0.314-0.7-0.7s0.314-0.7 0.7-0.7h3.501v-5.625c-4.833-0.24-8.694-4.148-8.854-9.002-0.003-0.027-0.016-0.051-0.016-0.078 0-0.016 0.009-0.030 0.009-0.047-0-0.063-0.009-0.124-0.009-0.187h0.047c0.097-0.271 0.349-0.467 0.653-0.467s0.556 0.196 0.653 0.467h0.047c0 4.383 3.553 7.936 7.936 7.936s7.936-3.553 7.936-7.936h0.047c0.097-0.271 0.349-0.467 0.653-0.467s0.556 0.196 0.653 0.467h0.047c0 0.063-0.009 0.124-0.009 0.187 0 0.016 0.009 0.030 0.009 0.047zM16.103 21.727c-3.351 0-6.069-2.717-6.069-6.069v-9.336c0-3.351 2.717-6.069 6.069-6.069s6.069 2.717 6.069 6.069v9.336c0 3.351-2.717 6.069-6.069 6.069zM20.771 14.258h-2.567c-0.129 0-0.233-0.104-0.233-0.233s0.104-0.233 0.233-0.233h2.567v-1.4h-2.567c-0.129 0-0.233-0.104-0.233-0.233s0.104-0.233 0.233-0.233h2.567v-1.4h-2.567c-0.129 0-0.233-0.104-0.233-0.233s0.104-0.233 0.233-0.233h2.567v-1.4h-2.567c-0.129 0-0.233-0.104-0.233-0.233s0.104-0.233 0.233-0.233h2.567v-1.867c0-2.578-2.090-4.668-4.668-4.668s-4.668 2.090-4.668 4.668v1.867h2.567c0.129 0 0.233 0.104 0.233 0.233s-0.104 0.233-0.233 0.233h-2.567v1.4h2.567c0.129 0 0.233 0.104 0.233 0.233s-0.104 0.233-0.233 0.233h-2.567v1.4h2.567c0.129 0 0.233 0.104 0.233 0.233s-0.104 0.233-0.233 0.233h-2.567v1.4h2.567c0.129 0 0.233 0.104 0.233 0.233s-0.104 0.233-0.233 0.233h-2.567v1.4c0 2.578 2.090 4.668 4.668 4.668s4.668-2.090 4.668-4.668v-1.4zM15.636 3.361c0-0.169 0.138-0.306 0.307-0.306 1.406 0 2.692 0.881 3.198 2.193 0.061 0.158-0.018 0.336-0.176 0.397s-0.336-0.018-0.397-0.176c-0.415-1.076-1.471-1.8-2.625-1.8-0.169 0-0.307-0.137-0.307-0.307zM19.029 5.917c0.009-0 0.017-0 0.026-0 0.158 0 0.293 0.122 0.306 0.282 0.008 0.093 0.011 0.188 0.011 0.284 0 0.169-0.137 0.306-0.307 0.306-0.169 0-0.306-0.137-0.306-0.306 0-0.079-0.003-0.158-0.009-0.234-0.014-0.169 0.112-0.317 0.281-0.331z"></path>
</symbol>
<symbol id="icon-sound-wave" viewBox="0 0 32 32">
<title>sound-wave</title>
<path class="path1" d="M9.333 24h2.667v-16h-2.667v16zM14.667 29.333h2.667v-26.667h-2.667v26.667zM4 18.667h2.667v-5.333h-2.667v5.333zM20 24h2.667v-16h-2.667v16zM25.333 13.333v5.333h2.667v-5.333h-2.667z"></path>
</symbol>
<symbol id="icon-account" viewBox="0 0 32 32">
<title>account</title>
<path class="path1" d="M4.015 29.56v-1.241c0-7.464 3.253-10.002 12.003-10.002 8.637 0 12.003 2.119 12.003 10.077v1.109l-24.005 0.058zM16.018 21.47c-6.542 0-8.625 1.014-8.802 4.889h17.581c-0.283-3.691-1.773-4.889-8.78-4.889zM16.018 16.757c-3.977 0-7.202-3.224-7.202-7.202s3.224-7.202 7.202-7.202c3.977 0 7.202 3.224 7.202 7.202s-3.224 7.202-7.202 7.202zM16.018 5.555c-2.21 0-4.001 1.791-4.001 4.001s1.791 4.001 4.001 4.001c2.21 0 4.001-1.791 4.001-4.001s-1.791-4.001-4.001-4.001z"></path>
</symbol>
<symbol id="icon-music" viewBox="0 0 32 32">
<title>music</title>
<path class="path1" d="M18.404 21.197c-0.469-1.77-0.074-3.421 1.183-4.954s2.971-2.523 5.14-2.971c-0.764-2.617-2.237-4.76-4.418-6.43s-4.665-2.505-7.451-2.505c-0.666 0-1.332 0.056-1.997 0.168s-1.3 0.268-1.904 0.468c-0.603 0.199-1.189 0.449-1.756 0.748s-1.109 0.636-1.627 1.010c-0.517 0.374-0.998 0.792-1.442 1.252s-0.851 0.947-1.22 1.458c-0.369 0.511-0.708 1.053-1.016 1.626s-0.561 1.164-0.758 1.775c-0.197 0.611-0.351 1.252-0.463 1.925s-0.167 1.345-0.167 2.019c0 1.346 0.209 2.654 0.628 3.925s1.010 2.417 1.775 3.439c0.764 1.022 1.652 1.913 2.662 2.672s2.144 1.351 3.402 1.775c1.257 0.424 2.551 0.636 3.882 0.635 1.873 0 3.624-0.392 5.251-1.177s3.020-1.863 4.178-3.234c-2.095-0.623-3.389-1.832-3.882-3.626v0zM12.857 21.684c-1.331 0-2.472-0.48-3.421-1.439s-1.424-2.112-1.424-3.459c0-0.897 0.216-1.72 0.647-2.468s1.023-1.34 1.775-1.775c0.752-0.435 1.559-0.653 2.422-0.654 1.356 0 2.509 0.48 3.458 1.439s1.423 2.112 1.423 3.458c0 0.897-0.216 1.72-0.647 2.468s-1.023 1.34-1.775 1.775c-0.752 0.435-1.571 0.654-2.459 0.654v0zM31.493 8.413c-0.345-0.698-0.715-1.339-1.11-1.925s-0.795-1.065-1.202-1.439c-0.407-0.374-0.82-0.704-1.239-0.991s-0.825-0.504-1.22-0.654c-0.395-0.15-0.77-0.275-1.128-0.374s-0.684-0.156-0.98-0.169c-0.296-0.013-0.554-0.019-0.776-0.019s-0.394 0.012-0.518 0.037h-0.185l-1.923-0.113c1.085 1.42 2.021 2.766 2.81 4.038s1.393 2.355 1.812 3.253c0.419 0.897 0.758 1.701 1.016 2.412s0.413 1.315 0.463 1.813c0.050 0.498 0.068 0.879 0.056 1.14s-0.043 0.48-0.092 0.654c-0.986-0.498-2.083-0.586-3.29-0.262-1.134 0.324-2.016 0.934-2.643 1.831s-0.819 1.807-0.573 2.729c0.246 0.922 0.856 1.601 1.83 2.037s2.028 0.492 3.162 0.169c0.567-0.175 1.085-0.43 1.554-0.767s0.844-0.717 1.128-1.14c0.283-0.424 0.474-0.884 0.573-1.383 1.306-2.018 0.641-5.595-1.997-10.729l-1.331-2.392 5.805 2.244zM12.857 14.132c-0.468 0-0.906 0.118-1.312 0.355s-0.727 0.561-0.962 0.973c-0.235 0.412-0.352 0.854-0.351 1.327 0 0.723 0.259 1.346 0.776 1.87s1.14 0.785 1.867 0.785c0.727-0.001 1.344-0.262 1.849-0.785s0.758-1.146 0.758-1.87c0-0.724-0.253-1.347-0.758-1.87s-1.128-0.784-1.867-0.785v0z"></path>
</symbol>
<symbol id="icon-my-music" viewBox="0 0 32 32">
<title>my-music</title>
<path class="path1" d="M24.839 28.375v-2.077h-0.026c0.010-0.172 0.026-0.344 0.026-0.518v-11.422c0-4.874-3.951-8.825-8.825-8.825s-8.825 3.951-8.825 8.825v11.422c0 0.175 0.016 0.346 0.026 0.518h-0.026v2.077c0 0-5.192-0.087-5.192-5.71 0-3.191 1.669-4.597 3.115-5.218v-3.089c0-6.021 4.881-10.902 10.902-10.902s10.902 4.881 10.902 10.902v3.089c1.446 0.621 3.115 2.027 3.115 5.218 0 5.623-5.192 5.71-5.192 5.71zM9.264 28.375h-1.038v-11.422h1.038v11.422zM23.801 28.375h-1.038v-11.422h1.038v11.422z"></path>
</symbol>
<symbol id="icon-sns" viewBox="0 0 32 32">
<title>sns</title>
<path class="path1" d="M29.956 25.796c-0.504-4.027-3.086-7.408-6.637-9.038 1.403-1.264 2.282-3.074 2.282-5.085 0-3.821-3.173-6.918-7.088-6.918s-7.088 3.097-7.088 6.918c0 2.010 0.879 3.82 2.282 5.084-3.552 1.63-6.133 5.012-6.637 9.039-0.059 0.474 0.631 1.447 1.352 1.447s1.484-0.393 1.575-1.524c0.33-4.1 4.258-7.126 8.515-7.126s8.186 3.025 8.516 7.126c0.091 1.131 0.855 1.524 1.575 1.524s1.411-0.973 1.352-1.447zM18.514 7.393c2.364 0 4.28 1.916 4.28 4.28s-1.916 4.28-4.28 4.28c-2.364 0-4.28-1.916-4.28-4.28s1.916-4.28 4.28-4.28zM11.101 16.169c-0.010-0.017-0.019-0.034-0.029-0.052-1.847-0.038-3.333-1.546-3.333-3.402 0-1.538 1.021-2.836 2.421-3.258 0.2-0.786 0.508-1.539 0.914-2.242-3.081 0.035-5.569 2.483-5.569 5.5 0 1.599 0.699 3.038 1.814 4.043-2.824 1.296-4.877 3.985-5.277 7.188-0.047 0.377 0.502 1.151 1.075 1.151s1.18-0.313 1.253-1.212c0.188-2.337 1.847-4.234 4.018-5.122 0.782-0.986 1.696-1.86 2.712-2.595z"></path>
</symbol>
</defs>
</svg>
